<?xml version="1.0" encoding="UTF-8" standalone="no"?>
<svg width="160px" height="32px" viewBox="0 0 160 32" version="1.1" xmlns="http://www.w3.org/2000/svg" xmlns:xlink="http://www.w3.org/1999/xlink" xmlns:sketch="http://www.bohemiancoding.com/sketch/ns">
    <!-- Generator: Sketch 3.3.3 (12072) - http://www.bohemiancoding.com/sketch -->
    <title>zz</title>
    <desc>Created with Sketch.</desc>
    <defs></defs>
    <g id="Page-1" stroke="none" stroke-width="1" fill="none" fill-rule="evenodd" sketch:type="MSPage">
        <g id="Artboard-7" sketch:type="MSArtboardGroup" transform="translate(-12.000000, -15.000000)">
            <rect id="Yellow" fill="#DCED84" sketch:type="MSShapeGroup" x="16.0131847" y="19.0179672" width="36.9597587" height="11.8488007" rx="2"></rect>
            <rect id="Green" fill="#D699C7" sketch:type="MSShapeGroup" x="16.0131847" y="24.9007165" width="36.9597587" height="11.8488007" rx="2"></rect>
            <rect id="Guide" fill="#03CDE7" sketch:type="MSShapeGroup" transform="translate(34.493064, 37.322118) scale(1, -1) translate(-34.493064, -37.322118) " x="16.0131847" y="30.8667679" width="36.9597587" height="12.9106998" rx="2"></rect>
            <path d="M61.5737305,29.6484375 L61.5737305,27.5244141 L63.2460938,27.5244141 L63.2460938,23.7768555 L65.6020508,23.7768555 L65.6020508,27.5244141 L69.2763672,27.5244141 L69.2763672,29.6484375 L65.6020508,29.6484375 L65.6020508,35.1049805 C65.6020508,36.2849994 65.6915681,37.0743795 65.8706055,37.4731445 C66.0577809,37.8556334 66.4850227,38.046875 67.1523438,38.046875 L69.2763672,37.9248047 L69.3984375,39.9755859 C68.275385,40.1790375 67.4249703,40.2807617 66.847168,40.2807617 C65.4799736,40.2807617 64.5400416,39.9552441 64.0273438,39.3041992 C63.5146459,38.6694304 63.2542318,37.4528085 63.2460938,35.6542969 L63.2460938,29.6484375 L61.5737305,29.6484375 Z M70.6395509,40 L70.6395509,27.5244141 L73.007715,27.5244141 L73.007715,40 L70.6395509,40 Z M70.6395509,25.0952148 L70.6395509,22.4707031 L73.007715,22.4707031 L73.007715,25.0952148 L70.6395509,25.0952148 Z M75.6892581,40 L75.6892581,22.2021484 L78.0330081,22.2021484 L78.0330081,32.4560547 L79.7419925,32.2973633 L83.0378909,27.5244141 L85.7112308,27.5244141 L81.8660159,33.3227539 L85.808887,40 L83.1355472,40 L79.7908206,34.6044922 L78.0330081,34.7509766 L78.0330081,40 L75.6892581,40 Z M86.1466801,33.8476562 C86.1466801,29.444965 87.9207509,27.2477213 91.4689457,27.2558594 C93.218629,27.2558594 94.5186648,27.7217564 95.3690922,28.6535645 C96.2195197,29.5853725 96.644727,31.0440981 96.644727,33.0297852 L96.4982426,34.7509766 L88.5514653,34.7509766 C88.5514653,35.8984432 88.7833965,36.74072 89.2472661,37.277832 C89.7192736,37.8312202 90.4964468,38.1038412 91.578809,38.0957031 C92.8808989,38.0957031 94.4108315,38.0224617 96.1686528,37.8759766 L96.2296879,39.7558594 C94.3335196,40.105796 92.6733799,40.2807617 91.2492192,40.2807617 C89.4018792,40.2482095 88.091671,39.7314503 87.3185551,38.7304688 C86.5373012,37.6887969 86.1466801,36.061209 86.1466801,33.8476562 L86.1466801,33.8476562 Z M88.5270512,32.8955078 L94.300977,32.8955078 C94.300977,31.593418 94.0832871,30.6778998 93.6479008,30.1489258 C93.2125145,29.6199518 92.4862034,29.3554688 91.4689457,29.3554688 C90.4679642,29.3554688 89.7355496,29.6280897 89.2716801,30.1733398 C88.8078106,30.71859 88.5596035,31.6259702 88.5270512,32.8955078 L88.5270512,32.8955078 Z M97.0313482,29.6484375 L97.0313482,27.5244141 L98.7037115,27.5244141 L98.7037115,23.7768555 L101.059669,23.7768555 L101.059669,27.5244141 L104.733985,27.5244141 L104.733985,29.6484375 L101.059669,29.6484375 L101.059669,35.1049805 C101.059669,36.2849994 101.149186,37.0743795 101.328223,37.4731445 C101.515399,37.8556334 101.94264,38.046875 102.609962,38.046875 L104.733985,37.9248047 L104.856055,39.9755859 C103.733003,40.1790375 102.882588,40.2807617 102.304786,40.2807617 C100.937591,40.2807617 99.9976594,39.9552441 99.4849615,39.3041992 C98.9722636,38.6694304 98.7118496,37.4528085 98.7037115,35.6542969 L98.7037115,29.6484375 L97.0313482,29.6484375 Z M107.992872,40 L107.992872,29.7 C107.992872,29.7 109.742872,28.65 111.617872,28.65 C114.092872,28.65 114.492872,29.8 114.492872,33.55 L114.492872,40 L115.967872,40 L115.967872,33.5 C115.967872,31.85 115.867872,30.4 115.617872,29.675 C115.692872,29.625 117.542872,28.65 119.417872,28.65 C121.942872,28.65 122.267872,29.9 122.267872,33.875 L122.267872,40 L123.767872,40 L123.767872,33.5 C123.767872,28.8 122.992872,27.275 119.592872,27.275 C117.767872,27.275 115.592872,28.2 114.992872,28.425 C114.542872,27.825 113.867872,27.475 112.892872,27.35 C112.492872,27.3 112.017872,27.3 111.492872,27.325 C109.667872,27.4 107.992872,28.4 107.992872,28.4 L107.992872,27.5 L106.492872,27.5 L106.492872,40 L107.992872,40 Z M131.002247,27.275 C127.127247,27.275 125.727247,29.125 125.727247,33.55 C125.727247,38.275 126.802247,40.25 131.002247,40.25 C135.177247,40.25 136.202247,38.05 136.202247,33.575 C136.202247,29.2 134.627247,27.275 131.002247,27.275 L131.002247,27.275 Z M131.002247,38.9 C127.777247,38.9 127.252247,37.35 127.252247,33.55 C127.252247,29.825 128.127247,28.625 131.002247,28.625 C133.552247,28.625 134.652247,30 134.652247,33.575 C134.652247,37.15 134.227247,38.9 131.002247,38.9 L131.002247,38.9 Z M143.736622,27.275 C141.786622,27.275 139.836622,28.15 139.836622,28.15 L139.836622,21.95 L138.336622,21.95 L138.336622,40 C138.336622,40 140.786622,40.25 142.361622,40.25 C146.936622,40.25 148.186622,38.35 148.186622,33.525 C148.186622,29.1 147.136622,27.275 143.736622,27.275 L143.736622,27.275 Z M142.336622,38.9 C141.586622,38.9 139.836622,38.75 139.836622,38.75 L139.836622,29.45 C139.836622,29.45 141.761622,28.65 143.636622,28.65 C146.036622,28.65 146.636622,30.125 146.636622,33.55 C146.636622,37.2 146.036622,38.9 142.336622,38.9 L142.336622,38.9 Z M150.120998,40 L151.620998,40 L151.620998,27.5 L150.120998,27.5 L150.120998,40 Z M150.120998,24.375 L151.620998,24.375 L151.620998,22.5 L150.120998,22.5 L150.120998,24.375 Z M154.405373,40 L155.905373,40 L155.905373,21.95 L154.405373,21.95 L154.405373,40 Z M162.939748,38.875 C160.314748,38.875 159.464748,37.325 159.464748,34.375 L167.964748,34.375 L168.014748,33.175 C168.014748,28.975 166.314748,27.275 163.089748,27.275 C160.039748,27.275 157.939748,28.975 157.939748,33.8 C157.939748,37.975 159.064748,40.225 162.789748,40.25 C164.739748,40.25 167.564748,39.9 167.564748,39.9 L167.514748,38.65 C167.514748,38.65 164.764748,38.875 162.939748,38.875 L162.939748,38.875 Z M159.464748,33.125 C159.464748,29.875 160.814748,28.6 163.089748,28.6 C165.439748,28.6 166.514748,29.825 166.514748,33.125 L159.464748,33.125 Z" id="tiketmobile-copy" fill="#494949" sketch:type="MSShapeGroup"></path>
        </g>
    </g>
</svg>